<?xml version="1.0" standalone="no"?>
<!DOCTYPE svg PUBLIC "-//W3C//DTD SVG 20010904//EN"
 "http://www.w3.org/TR/2001/REC-SVG-20010904/DTD/svg10.dtd">
<svg version="1.0" xmlns="http://www.w3.org/2000/svg"
 width="469pt" height="134pt" viewBox="0 0 469 134"
 preserveAspectRatio="xMidYMid meet">
<metadata>
Created by POTRACE VERSION, written by Peter Selinger 2001-2007
</metadata>
<g transform="translate(0,134) scale(0.026621,-0.026621)"
fill="#000000" stroke="none">
<path d="M8763 4734 c-14 -14 -44 -34 -67 -44 -23 -9 -65 -39 -94 -65 -29 -26
-67 -68 -84 -94 -17 -25 -41 -56 -54 -69 -12 -12 -24 -35 -27 -51 -4 -16 -20
-45 -37 -64 -16 -19 -37 -54 -45 -78 -9 -24 -24 -53 -34 -64 -10 -11 -30 -42
-44 -70 -14 -27 -34 -59 -46 -69 -12 -11 -21 -23 -21 -29 0 -5 -23 -35 -52
-66 -33 -36 -67 -62 -96 -73 -25 -10 -57 -28 -71 -41 -14 -14 -36 -30 -49 -36
-13 -7 -38 -36 -56 -64 -19 -29 -43 -60 -54 -70 -11 -10 -23 -30 -26 -43 -4
-15 1 -42 14 -71 l20 -45 65 7 c62 6 64 6 70 -17 3 -13 -1 -56 -9 -96 -9 -40
-27 -94 -41 -122 -14 -27 -30 -82 -35 -121 -6 -40 -13 -84 -16 -98 -4 -14 -15
-40 -25 -56 -10 -17 -25 -64 -34 -105 -9 -41 -27 -93 -40 -115 -12 -22 -28
-69 -35 -105 -6 -36 -16 -73 -21 -82 -5 -10 -29 -28 -52 -39 -23 -12 -52 -30
-65 -39 -12 -10 -53 -27 -90 -39 -38 -11 -77 -29 -86 -40 -10 -11 -35 -26 -55
-32 -20 -6 -48 -20 -63 -31 -15 -10 -36 -33 -47 -52 -12 -18 -21 -42 -21 -52
0 -11 5 -36 11 -57 7 -27 21 -44 50 -62 21 -14 39 -31 39 -39 0 -7 14 -32 31
-55 17 -24 39 -63 49 -86 12 -28 30 -50 50 -60 17 -9 45 -15 63 -13 25 2 39
14 74 63 23 33 47 82 54 110 6 28 26 77 44 110 18 33 38 85 45 115 6 30 30 91
53 135 38 73 47 82 95 106 30 14 64 38 75 52 12 14 46 35 74 46 52 20 53 20
63 1 5 -10 10 -26 10 -34 0 -9 -15 -33 -34 -54 -19 -20 -39 -57 -46 -82 -6
-25 -20 -59 -31 -76 -16 -26 -19 -51 -19 -140 0 -100 2 -113 24 -145 14 -20
28 -48 31 -62 4 -14 26 -45 50 -70 23 -25 59 -50 81 -57 22 -7 59 -23 84 -35
27 -14 75 -25 120 -29 54 -5 97 -3 155 9 43 9 96 25 117 36 21 11 61 24 88 29
37 7 73 6 133 -5 45 -8 100 -15 122 -14 22 0 75 6 118 14 53 9 86 21 106 38
16 13 50 29 75 36 25 6 60 24 78 40 18 15 51 34 73 41 22 7 56 27 75 45 19 18
46 38 60 45 14 7 31 21 38 32 7 10 22 18 32 18 10 0 22 -5 25 -11 4 -6 4 -25
1 -44 -4 -18 -19 -49 -35 -69 -16 -19 -31 -54 -35 -76 -4 -26 -2 -51 6 -68 8
-15 33 -36 58 -49 25 -12 55 -22 67 -22 12 -1 24 3 28 8 3 5 27 17 54 26 27 9
67 28 88 43 21 16 59 36 85 45 25 10 52 24 58 32 7 8 37 24 68 35 32 12 66 30
77 40 12 11 54 31 95 45 41 14 89 30 105 34 17 5 48 18 70 30 21 12 47 21 56
21 9 0 27 -8 40 -18 22 -19 22 -20 6 -61 -9 -23 -17 -57 -17 -76 0 -19 -6 -39
-12 -46 -7 -6 -33 -21 -58 -33 -35 -16 -46 -27 -48 -48 -2 -15 4 -40 13 -57 8
-17 25 -36 37 -42 11 -6 41 -9 65 -6 34 4 52 13 81 43 20 22 45 44 56 49 16 9
20 32 31 170 11 133 10 167 -1 206 -8 26 -21 53 -31 60 -10 9 -42 14 -92 14
-62 0 -85 -5 -126 -26 -27 -14 -72 -31 -100 -38 -27 -7 -71 -26 -96 -42 -25
-16 -51 -29 -57 -29 -6 0 -32 -7 -58 -16 -26 -9 -59 -24 -73 -35 -14 -10 -48
-26 -76 -35 -27 -9 -62 -29 -77 -45 -21 -23 -36 -29 -66 -29 -22 0 -44 6 -50
13 -8 10 -6 22 9 46 11 18 27 63 35 99 9 37 15 93 15 126 0 41 -5 64 -17 77
-10 11 -30 19 -49 19 -20 0 -39 -8 -51 -21 -10 -12 -41 -37 -69 -56 -27 -18
-64 -44 -81 -56 -18 -12 -45 -30 -60 -39 -16 -10 -51 -32 -79 -49 -27 -17 -61
-41 -75 -54 -14 -13 -45 -29 -70 -35 -25 -7 -64 -24 -86 -39 -23 -15 -66 -33
-96 -40 -38 -8 -63 -9 -81 -2 -15 6 -27 16 -27 23 0 7 29 46 65 86 36 40 65
79 65 87 0 7 12 28 26 45 16 18 32 57 41 93 7 34 21 97 30 140 l16 77 -28 69
c-25 62 -32 72 -67 85 -21 9 -50 16 -65 16 -15 0 -44 -12 -65 -26 -21 -15 -38
-30 -38 -35 0 -4 -19 -19 -43 -33 -23 -14 -50 -38 -59 -53 -9 -15 -28 -41 -42
-58 -15 -16 -36 -50 -47 -75 -11 -25 -28 -54 -38 -65 -10 -11 -26 -45 -36 -75
-10 -30 -26 -65 -36 -78 -10 -13 -21 -43 -24 -66 -5 -29 -2 -55 9 -81 15 -35
15 -40 -1 -68 -10 -16 -31 -39 -46 -51 -26 -19 -45 -21 -187 -25 l-159 -3 -70
68 c-49 50 -72 80 -80 109 -6 22 -11 73 -11 113 0 40 5 83 11 95 7 12 23 35
35 50 13 16 24 37 24 46 0 10 13 38 30 62 16 24 36 67 45 95 9 33 24 58 39 68
15 9 30 34 38 61 9 33 34 68 88 126 41 44 102 107 135 140 33 32 70 68 82 78
12 10 25 35 28 55 5 23 3 42 -5 51 -7 8 -25 15 -41 15 -22 0 -42 -13 -81 -55
-29 -30 -61 -63 -71 -72 -10 -10 -35 -35 -55 -55 -21 -21 -43 -38 -49 -38 -7
0 -32 -17 -57 -37 -25 -21 -64 -51 -87 -68 -23 -16 -59 -39 -79 -50 -20 -11
-70 -45 -111 -76 -41 -31 -85 -62 -98 -68 -12 -7 -30 -10 -38 -7 -12 5 -14 17
-11 49 3 24 17 61 31 83 15 23 32 73 42 122 9 46 25 102 35 125 10 23 25 85
35 137 10 56 26 112 41 137 13 23 31 74 39 113 8 39 26 90 39 113 14 23 29 71
35 106 8 48 18 73 39 95 15 17 35 48 45 68 9 20 40 56 69 79 29 22 57 48 61
55 4 8 27 24 50 35 23 12 46 28 50 35 4 8 22 20 40 28 18 8 53 36 79 63 26 26
63 67 83 89 19 23 35 46 35 51 0 5 16 24 35 43 20 19 40 52 46 74 6 23 23 55
38 72 15 17 33 52 41 77 7 26 10 63 7 83 -3 20 -13 47 -22 60 -13 20 -24 24
-66 24 -40 0 -55 -5 -76 -26z m-13 -215 c0 -43 -4 -51 -31 -71 -17 -13 -37
-34 -44 -48 -7 -14 -42 -55 -77 -92 -35 -37 -77 -70 -92 -74 -16 -4 -32 -2
-39 5 -9 9 -4 19 21 42 17 16 32 38 32 49 0 10 14 30 30 44 17 14 39 46 51 72
11 26 29 54 40 62 11 8 34 27 50 43 17 16 35 26 44 23 10 -4 15 -21 15 -55z
m-702 -798 c10 -6 11 -22 6 -59 -3 -28 -15 -64 -25 -81 -11 -18 -27 -31 -39
-31 -10 0 -24 9 -30 19 -5 11 -10 30 -10 43 0 13 14 44 30 71 17 26 36 47 43
47 6 0 18 -4 25 -9z m1077 -1065 c14 -21 15 -38 7 -111 -9 -79 -13 -90 -41
-116 -17 -15 -31 -35 -31 -43 0 -8 -17 -34 -37 -57 -21 -23 -56 -62 -77 -86
-22 -25 -48 -48 -57 -54 -12 -6 -22 -4 -33 7 -10 10 -16 33 -16 64 0 37 6 55
25 78 14 17 37 57 51 89 14 32 34 67 45 79 10 11 27 44 37 72 14 41 26 58 57
77 22 13 43 25 47 25 4 0 15 -11 23 -24z m-1497 -299 c2 -18 -6 -42 -22 -65
-13 -21 -30 -58 -37 -85 -6 -26 -16 -50 -21 -53 -6 -4 -32 4 -59 16 -37 18
-51 31 -59 56 -7 19 -10 44 -8 56 2 18 23 33 88 65 47 23 92 41 100 40 8 -1
16 -15 18 -30z"/>
<path d="M1197 3756 c-42 -13 -85 -30 -95 -39 -9 -8 -38 -25 -64 -36 -26 -11
-56 -29 -67 -40 -11 -11 -32 -27 -48 -37 -15 -10 -44 -33 -63 -51 -19 -19 -71
-67 -115 -108 -44 -41 -84 -75 -88 -75 -4 0 -29 -21 -56 -47 -26 -27 -54 -59
-61 -73 -7 -13 -24 -33 -36 -43 -13 -10 -33 -36 -45 -57 -13 -22 -26 -40 -30
-40 -4 0 -14 -18 -23 -40 -9 -22 -16 -49 -16 -60 0 -11 11 -27 24 -35 20 -13
32 -14 64 -6 22 6 45 18 52 26 6 8 18 35 26 61 7 25 25 58 39 72 14 15 50 52
81 82 30 30 78 76 106 103 27 26 54 47 59 47 4 0 16 13 25 29 10 16 29 34 42
41 14 6 37 23 51 36 14 14 50 41 79 60 28 19 90 48 137 65 53 19 95 29 109 25
17 -4 28 -18 37 -43 7 -23 10 -65 6 -117 -4 -47 -17 -112 -32 -156 -14 -41
-34 -102 -44 -135 -10 -33 -32 -90 -49 -125 -16 -36 -34 -82 -40 -102 -6 -20
-21 -52 -35 -70 -14 -18 -31 -59 -38 -91 -7 -34 -24 -74 -41 -94 -15 -20 -33
-54 -39 -77 -6 -22 -24 -62 -40 -87 -16 -25 -33 -69 -39 -98 -5 -30 -21 -66
-35 -82 -13 -17 -31 -53 -39 -80 -9 -28 -25 -65 -36 -83 -11 -18 -26 -67 -34
-109 -8 -41 -24 -94 -36 -117 -13 -25 -20 -55 -18 -77 2 -20 10 -40 19 -46 9
-5 32 -7 53 -3 33 6 40 13 61 59 13 29 44 73 68 99 42 45 46 47 78 38 18 -5
39 -16 46 -23 8 -8 22 -56 33 -107 14 -70 26 -102 48 -129 24 -30 36 -36 67
-36 27 0 41 5 49 20 6 11 25 36 42 56 17 20 34 54 38 75 4 21 21 60 38 86 21
33 33 70 41 120 5 40 15 79 20 86 6 7 34 12 75 12 36 0 106 5 156 11 77 10 96
16 124 41 29 25 41 29 85 26 46 -3 52 -6 55 -26 2 -13 -3 -31 -12 -41 -8 -9
-22 -33 -31 -54 -8 -20 -15 -59 -15 -86 0 -27 5 -62 10 -76 6 -15 32 -52 58
-83 26 -30 61 -61 79 -69 18 -7 45 -13 61 -13 16 0 75 16 133 36 61 22 117 48
137 65 18 16 37 29 42 29 5 0 29 18 52 40 24 22 53 50 66 63 12 12 39 39 60
59 20 21 44 38 53 38 9 0 20 -7 23 -16 3 -9 6 -42 6 -74 0 -33 5 -69 11 -82 6
-13 31 -40 56 -60 43 -37 47 -38 121 -38 58 0 86 5 112 19 19 11 62 33 95 49
33 16 71 41 84 56 14 14 30 26 38 26 7 0 31 16 53 36 30 28 50 37 78 38 l37 1
2 -67 c1 -37 7 -84 13 -103 6 -19 20 -40 30 -45 10 -6 41 -10 68 -10 36 0 59
7 86 25 21 14 59 36 85 49 26 14 54 32 61 42 8 9 33 25 55 34 22 10 55 31 72
47 19 17 53 34 80 40 31 7 54 8 65 2 11 -6 18 -21 18 -39 0 -16 -11 -46 -25
-66 -14 -20 -25 -51 -25 -69 0 -23 12 -48 41 -84 22 -28 52 -54 66 -57 14 -4
66 -4 116 0 64 4 99 12 121 26 17 10 52 31 78 44 25 14 49 34 52 43 3 10 26
31 51 47 36 22 48 26 60 16 7 -6 19 -35 25 -63 6 -28 17 -62 25 -73 8 -12 31
-28 51 -34 20 -7 56 -10 80 -6 26 3 99 35 186 82 79 42 159 89 178 104 19 15
51 35 70 45 19 9 45 26 57 37 11 11 36 23 55 27 19 5 44 4 56 0 19 -7 22 -16
22 -61 0 -30 8 -70 19 -93 16 -34 31 -46 103 -83 l85 -44 57 26 c31 14 62 26
69 26 7 0 26 9 42 19 17 10 65 52 108 93 64 62 77 79 77 106 0 22 -7 36 -24
47 -22 14 -28 14 -77 -5 -30 -12 -66 -33 -80 -46 -14 -14 -49 -34 -78 -44 -28
-11 -64 -20 -80 -20 -19 0 -34 8 -44 23 -8 13 -21 43 -27 66 -6 25 -28 61 -51
86 -23 24 -57 49 -76 56 -20 6 -55 9 -80 5 -25 -3 -58 -15 -73 -26 -16 -12
-44 -26 -63 -33 -18 -7 -54 -25 -81 -42 -26 -16 -68 -45 -93 -63 -25 -19 -65
-40 -89 -47 -24 -7 -60 -27 -79 -44 -20 -17 -44 -31 -53 -31 -10 0 -26 6 -36
13 -17 12 -17 18 -5 71 7 34 29 82 50 115 21 31 44 77 50 103 12 42 11 49 -6
68 -11 12 -31 20 -51 20 -25 0 -43 -9 -71 -38 -21 -20 -65 -70 -97 -109 -43
-52 -72 -78 -106 -92 -26 -11 -55 -32 -64 -46 -9 -13 -34 -34 -56 -45 -22 -11
-40 -24 -40 -29 0 -5 -18 -16 -40 -25 -22 -9 -63 -17 -90 -18 -36 -2 -55 2
-67 14 -15 16 -15 26 -5 95 10 66 10 86 -3 130 -9 29 -22 59 -31 68 -8 8 -27
15 -42 15 -15 0 -56 -5 -92 -11 -39 -6 -89 -23 -125 -44 -33 -18 -82 -50 -109
-72 -27 -21 -64 -53 -83 -70 -27 -27 -42 -33 -77 -33 -26 0 -48 6 -56 15 -8 9
-10 28 -5 51 3 20 1 58 -6 86 -8 30 -23 58 -37 69 -14 11 -40 19 -61 19 -20 0
-51 -9 -68 -20 -18 -11 -33 -24 -33 -30 0 -6 -29 -24 -64 -39 -35 -16 -67 -34
-71 -41 -4 -6 -31 -22 -61 -35 -30 -13 -66 -33 -80 -44 -14 -11 -47 -27 -74
-36 -27 -9 -59 -14 -70 -10 -11 4 -27 17 -36 30 -14 21 -13 34 7 137 16 84 20
133 15 191 -3 42 -10 86 -16 97 -7 14 -21 20 -44 20 -18 0 -45 -9 -59 -21 -15
-11 -32 -39 -38 -62 -7 -23 -27 -58 -46 -77 -18 -19 -59 -62 -91 -95 -31 -34
-93 -93 -137 -132 -58 -51 -93 -74 -125 -83 -25 -6 -62 -23 -82 -37 -20 -13
-55 -27 -77 -30 -31 -4 -46 -1 -60 12 -11 9 -22 34 -26 55 -4 23 0 58 10 93 9
31 25 67 36 81 10 13 28 44 38 67 12 25 42 61 75 88 30 25 67 54 82 65 24 17
26 23 21 69 -3 33 -11 55 -23 64 -10 7 -26 13 -35 13 -10 0 -30 -11 -46 -24
-16 -14 -53 -34 -81 -44 -28 -11 -65 -31 -82 -45 -16 -14 -52 -30 -80 -36 -28
-6 -61 -11 -73 -11 -12 0 -42 -14 -66 -30 -24 -17 -49 -30 -55 -30 -6 0 -51
-5 -101 -11 -49 -6 -130 -12 -179 -13 l-88 -1 -32 -37 c-18 -20 -40 -61 -49
-90 -9 -30 -21 -78 -27 -108 -6 -30 -17 -64 -25 -77 -9 -13 -22 -23 -29 -23
-8 0 -22 21 -32 48 -10 26 -38 68 -63 94 -38 40 -53 48 -96 54 -27 3 -53 12
-57 18 -4 6 -8 14 -8 17 0 3 13 20 29 37 21 21 32 45 36 79 4 28 19 65 36 90
17 23 36 63 44 89 8 26 25 58 39 73 14 15 31 53 41 90 9 35 23 73 30 85 8 12
21 40 29 62 8 23 30 62 49 87 19 24 39 67 46 93 7 27 23 68 37 92 14 24 31 78
39 123 8 47 25 100 40 125 16 28 26 61 28 91 1 27 1 80 -1 118 -2 66 -5 74
-48 132 -37 49 -55 65 -92 77 -25 9 -50 16 -56 15 -6 0 -46 -10 -89 -23z"/>
<path d="M10138 3364 c-42 -21 -48 -28 -48 -57 0 -17 9 -46 20 -64 13 -21 32
-36 59 -44 34 -10 44 -9 66 5 14 9 25 21 25 27 0 6 9 22 20 36 11 14 20 36 20
48 0 17 -13 30 -44 49 -25 14 -51 26 -58 26 -7 -1 -34 -12 -60 -26z"/>
<path d="M14033 3190 c-12 -5 -30 -22 -39 -37 -10 -15 -42 -52 -73 -80 -30
-29 -58 -53 -61 -53 -4 0 -12 -11 -18 -24 -6 -13 -24 -39 -41 -59 -17 -19 -40
-61 -51 -93 -12 -32 -31 -75 -45 -94 -13 -19 -29 -55 -35 -80 -7 -25 -24 -65
-38 -89 -15 -24 -42 -60 -61 -80 -19 -20 -44 -53 -57 -73 -14 -21 -29 -38 -34
-38 -5 0 -24 -19 -41 -42 -17 -24 -60 -69 -97 -101 -37 -32 -81 -71 -98 -87
-18 -15 -50 -40 -73 -55 -23 -14 -44 -32 -47 -40 -3 -7 -24 -21 -46 -30 -22
-8 -56 -29 -76 -45 -21 -16 -59 -34 -85 -41 -42 -10 -51 -10 -65 4 -10 11 -16
37 -18 74 -1 32 -9 75 -18 96 -12 26 -28 43 -51 53 -19 8 -47 14 -63 14 -16 0
-69 -9 -118 -20 -49 -10 -111 -28 -139 -38 -27 -11 -69 -23 -92 -27 -24 -4
-60 -18 -80 -32 -21 -14 -60 -32 -88 -40 -27 -8 -65 -24 -82 -35 -20 -12 -41
-17 -53 -13 -11 3 -24 14 -30 24 -6 12 -5 32 1 56 6 21 31 60 57 87 40 43 46
55 45 90 -1 22 -9 51 -18 64 -12 19 -24 24 -54 24 -28 0 -49 -8 -69 -25 -17
-14 -47 -32 -67 -41 -21 -8 -54 -26 -74 -40 -21 -13 -53 -29 -72 -34 -19 -6
-92 -13 -164 -15 -75 -3 -152 -1 -181 5 -29 6 -59 19 -69 30 -12 13 -15 27
-10 49 4 17 11 33 16 36 5 3 22 -4 38 -16 21 -15 37 -20 55 -15 14 3 32 19 41
35 8 16 24 33 35 36 12 4 28 21 36 39 9 17 29 39 45 48 16 10 34 30 40 45 6
15 21 39 34 53 15 16 30 52 41 99 13 60 14 81 5 113 -7 21 -23 45 -36 54 -18
12 -35 14 -62 9 -21 -4 -47 -15 -58 -25 -11 -9 -32 -24 -46 -31 -15 -8 -48
-32 -75 -54 -27 -22 -68 -62 -92 -90 -23 -27 -55 -66 -71 -85 -15 -19 -34 -53
-41 -75 -7 -22 -25 -61 -41 -86 -25 -39 -29 -56 -29 -118 l0 -72 48 -51 c26
-28 62 -57 81 -65 20 -9 93 -18 174 -23 77 -4 165 -4 196 0 31 4 77 14 104 20
37 10 50 10 62 0 8 -7 15 -25 15 -39 0 -15 -7 -36 -15 -47 -8 -10 -15 -28 -15
-39 0 -13 12 -28 32 -40 17 -10 52 -26 77 -36 43 -16 48 -16 91 1 25 10 80 23
124 30 53 9 87 20 105 35 14 13 60 33 101 45 41 12 84 28 96 35 12 8 56 21 98
29 42 9 89 13 104 10 15 -4 33 -11 40 -17 8 -6 12 -37 12 -87 0 -43 3 -86 6
-95 4 -8 19 -22 35 -30 16 -9 56 -15 94 -15 37 0 82 7 103 15 20 9 46 24 57
35 11 10 41 28 67 39 26 11 51 29 57 39 6 11 24 25 41 30 17 6 54 30 83 54 28
24 91 83 139 132 57 57 93 86 103 83 8 -4 17 -18 21 -33 4 -14 1 -51 -6 -83
-7 -31 -24 -83 -37 -115 -15 -35 -25 -82 -26 -114 -1 -52 1 -56 45 -98 26 -24
55 -44 65 -44 10 0 40 15 66 34 27 19 86 77 132 130 46 52 86 104 90 116 7 21
11 22 93 16 56 -5 125 -2 193 7 78 11 119 22 150 40 24 14 68 29 97 33 34 4
64 16 82 30 15 13 33 24 39 24 5 0 14 -8 19 -17 5 -10 12 -33 16 -52 3 -18 24
-55 46 -81 25 -30 55 -53 77 -61 20 -6 51 -21 70 -31 20 -12 53 -21 81 -21 26
0 83 11 127 26 44 15 105 31 135 37 30 6 75 21 100 34 25 13 65 30 88 37 24 7
51 22 60 34 9 11 43 35 75 53 32 18 68 32 80 30 16 -2 23 -12 27 -38 4 -19 18
-60 32 -90 15 -30 43 -72 63 -93 20 -22 53 -46 73 -54 21 -8 49 -23 63 -33 14
-10 65 -26 113 -34 72 -12 108 -13 192 -5 74 7 109 7 123 -1 12 -6 21 -19 21
-29 0 -10 -7 -38 -15 -62 -9 -24 -25 -53 -36 -65 -11 -12 -29 -49 -39 -84 -10
-34 -26 -70 -35 -80 -9 -10 -27 -45 -40 -77 -22 -52 -31 -62 -92 -100 -37 -23
-74 -42 -81 -43 -7 0 -41 -29 -75 -64 -34 -36 -75 -81 -90 -100 -16 -20 -38
-55 -49 -78 -11 -24 -34 -58 -49 -76 -21 -24 -29 -43 -29 -71 0 -21 -7 -60
-15 -87 -8 -27 -15 -76 -15 -109 0 -41 -6 -72 -20 -98 -13 -23 -20 -56 -20
-90 0 -29 5 -58 12 -65 7 -7 23 -12 35 -12 13 0 37 7 52 15 16 8 47 35 69 61
23 25 46 62 53 82 6 21 26 53 44 72 18 19 38 54 45 78 6 24 21 53 32 64 12 12
34 47 49 78 15 30 34 62 42 69 9 7 21 28 27 47 6 18 24 43 40 54 22 16 30 32
38 80 8 41 21 72 41 98 17 20 34 52 37 70 4 18 22 47 40 64 24 23 35 44 40 75
4 28 18 58 39 84 19 21 39 56 46 77 6 20 24 55 40 77 15 22 31 61 34 86 4 26
15 61 25 77 10 17 40 43 67 58 26 15 57 35 68 44 11 10 43 26 70 36 28 10 65
30 83 46 18 15 39 28 47 28 9 0 30 14 48 31 17 17 50 40 72 52 22 11 51 31 65
44 14 13 70 68 125 121 55 53 108 109 117 124 10 14 25 29 35 32 10 3 29 26
42 51 13 25 28 45 32 45 5 0 18 19 30 42 17 33 20 54 17 105 -3 42 -10 72 -24
90 -11 16 -36 36 -55 46 -27 15 -49 17 -109 14 -42 -3 -91 -12 -110 -21 -19
-9 -60 -31 -90 -49 -31 -18 -96 -75 -146 -127 -50 -52 -99 -111 -109 -130 -9
-19 -28 -46 -41 -60 -14 -14 -45 -49 -69 -78 -25 -29 -45 -59 -45 -66 0 -7
-15 -33 -34 -57 -18 -24 -39 -61 -45 -81 -7 -20 -19 -42 -28 -50 -9 -7 -27
-36 -39 -65 -13 -29 -34 -58 -46 -64 -16 -9 -87 -13 -243 -13 -206 -1 -223 0
-267 21 -38 17 -56 35 -88 85 -30 47 -40 73 -40 104 0 31 8 51 29 78 18 22 33
55 36 81 4 25 2 51 -4 64 -7 11 -22 23 -34 26 -13 4 -36 1 -52 -5 -15 -6 -54
-37 -84 -69 -46 -48 -67 -62 -113 -76 -31 -9 -73 -29 -93 -45 -21 -17 -53 -34
-73 -39 -19 -6 -51 -21 -71 -35 -23 -17 -60 -29 -104 -35 -42 -6 -77 -17 -94
-31 -25 -19 -36 -21 -98 -15 -38 3 -94 13 -123 23 -30 9 -58 25 -63 35 -6 10
-7 26 -4 36 3 10 38 51 77 90 46 46 94 83 132 102 34 17 81 41 106 55 24 13
51 30 58 38 10 10 13 25 8 50 -4 19 -17 42 -29 51 -12 8 -32 15 -45 15 -13 0
-60 -16 -104 -35 -44 -20 -100 -52 -125 -73 -25 -20 -60 -51 -78 -68 -19 -18
-56 -39 -83 -48 -27 -9 -58 -26 -67 -36 -10 -11 -34 -22 -54 -26 -20 -3 -57
-12 -82 -19 -26 -7 -62 -21 -80 -31 -19 -9 -61 -23 -94 -30 -33 -7 -112 -16
-175 -20 -100 -6 -117 -5 -129 10 -7 9 -21 31 -30 49 -14 29 -21 32 -66 35
-32 2 -57 -2 -70 -12 -18 -13 -20 -24 -17 -106 3 -88 2 -91 -24 -113 -15 -12
-41 -37 -60 -56 -28 -30 -35 -33 -48 -22 -9 8 -16 22 -16 32 0 10 10 37 21 59
15 28 25 77 34 160 11 110 14 123 48 172 21 32 40 75 47 110 6 31 18 62 26 69
9 7 22 25 30 40 8 16 14 42 14 59 0 17 5 41 12 53 6 12 25 40 42 62 17 22 43
54 58 72 15 18 36 54 48 80 12 26 34 62 49 78 15 17 44 52 64 79 21 27 37 57
37 67 0 10 -7 25 -16 33 -8 9 -27 16 -42 15 -15 0 -37 -4 -49 -9z m3103 -541
c8 -6 14 -17 14 -25 0 -7 -11 -30 -25 -51 -13 -21 -38 -54 -55 -73 -17 -19
-40 -44 -51 -55 -11 -11 -41 -39 -67 -62 -26 -24 -64 -58 -85 -75 -21 -18 -53
-48 -72 -66 -19 -18 -54 -41 -79 -51 -24 -11 -50 -29 -56 -41 -6 -12 -27 -28
-45 -36 -19 -8 -46 -14 -60 -14 -18 0 -25 5 -25 19 0 10 15 41 33 67 18 27 47
65 65 84 18 19 48 51 67 70 20 19 35 40 35 46 0 6 16 29 36 50 19 21 72 76
117 122 62 62 93 86 127 97 25 8 60 13 78 10 19 -2 40 -9 48 -16z m-5582 -65
c10 -4 16 -18 16 -37 0 -23 -10 -42 -35 -67 -19 -19 -64 -66 -101 -103 -49
-49 -70 -64 -76 -55 -4 7 -8 25 -8 40 0 18 8 33 24 44 14 8 27 28 31 42 3 15
30 53 59 85 29 31 58 57 64 57 6 0 17 -3 26 -6z m4212 -1669 c4 -15 1 -32 -6
-40 -7 -8 -19 -15 -26 -15 -9 0 -14 11 -14 28 0 15 5 33 12 40 7 7 16 12 20
12 4 0 10 -11 14 -25z m-76 -94 c0 -6 -5 -13 -11 -16 -6 -4 -13 -5 -16 -2 -3
3 -2 10 2 16 3 6 10 11 16 11 5 0 9 -4 9 -9z"/>
</g>
</svg>
